<svg viewBox="0.52976,0.49994,28.62418,27.21918" height="27.21918" width="28.62418" xmlns:xlink="http://www.w3.org/1999/xlink" xmlns="http://www.w3.org/2000/svg" version="1.1"><g transform="translate(-225.15815,-165.89047)"><g style="mix-blend-mode: normal" stroke-dashoffset="0" stroke-dasharray="" stroke-miterlimit="4" stroke-linejoin="miter" stroke-linecap="butt" stroke-width="0" fill-rule="nonzero" data-paper-data="{&quot;isPaintingLayer&quot;:true}"><path stroke="none" fill="#0066ff" d="M249.46714,166.39045l4.84495,6.52576l-1.6881,9.79676l-12.57036,10.89662l-12.60129,-10.79853l-1.7644,-9.78331l4.7879,-6.63731h5.51841l3.96597,2.12039l3.97724,-2.12039z"></path><path stroke="none" fill="#80b3ff" d="M249.8549,175.11091l4.45719,-2.19469l-1.68809,9.79677l-3.93773,-0.81994z"></path><path stroke="none" fill="#2a7fff" d="M235.99426,166.39047l3.96599,2.12034l-0.04093,3.55029l-2.74557,-1.4679h-3.82032l-2.87758,-4.20273z"></path><path stroke="none" fill="#5599ff" d="M249.46715,166.39041l4.84493,6.52575l-4.45719,2.19469v0l-3.35411,-4.51764l2.96636,-4.20273z"></path><path stroke="none" fill="#2a7fff" d="M249.46715,166.39047l-2.96636,4.20273h-3.82809l-2.75339,1.4679l0.04093,-3.55029l3.9772,-2.12034z"></path><path stroke="none" fill="#0055d4" d="M248.68627,181.89305l3.93773,0.81994l-12.57036,10.89658l-0.06968,-4.17296z"></path><path stroke="none" fill="#0044aa" d="M239.98396,189.43661l0.06968,4.17296l-12.60128,-10.79852l3.80795,-0.85014z"></path><path stroke="none" fill="#0055d4" d="M230.03885,175.18811l1.22145,6.7728l-3.80795,0.85014l-1.76444,-9.78331z"></path><path stroke="none" fill="#0066ff" d="M233.35342,170.5932l-3.31457,4.5949l-4.35094,-2.16037l4.78793,-6.63726z"></path><path stroke="none" fill="#d5e5ff" d="M246.50081,170.59319l3.35409,4.51769l-1.16864,6.78215l-8.70228,7.54357l-8.72369,-7.47566l-1.22146,-6.77283l3.31459,-4.59491h3.82031l2.74559,1.46791l2.75338,-1.46791z"></path><path stroke="none" fill="#80b3ff" d="M245.84862,171.55563l3.0263,4.07618l-1.05443,6.11934l-7.85181,6.80635l-7.87113,-6.74508l-1.10209,-6.11093l2.99066,-4.14585h3.44696l2.47726,1.32446l2.4843,-1.32446z"></path><path opacity="0.13" stroke="none" fill="#003380" d="M234.57147,171.55567c-0.06937,0.37185 -0.11243,0.74672 -0.12899,1.12291c-0.15937,5.34218 4.95831,9.94035 11.74332,10.55122l-6.21714,5.3277l-7.87113,-6.74508l-1.10209,-6.11093l2.99066,-4.14585z"></path><path stroke="none" fill="#d5e5ff" d="M232.09473,180.66304c-0.64751,-0.26107 -0.95706,-1.00683 -0.6914,-1.6657c0.26565,-0.65887 1.00592,-0.98134 1.65342,-0.72027c0.64751,0.26107 0.95706,1.00683 0.6914,1.6657c-0.26565,0.65887 -1.00592,0.98134 -1.65342,0.72027z"></path><path stroke="none" fill="#d5e5ff" d="M231.62157,178.89403c-0.48847,-0.19695 -0.6988,-0.81706 -0.46979,-1.38504c0.22901,-0.56799 0.81065,-0.86877 1.29912,-0.67182c0.48847,0.19695 0.6988,0.81706 0.46979,1.38504c-0.22901,0.56799 -0.81065,0.86877 -1.29912,0.67182z"></path><path stroke="none" fill="#d5e5ff" d="M238.78178,173.21511c0,-0.52668 0.49646,-0.95364 1.10888,-0.95364c0.61242,0 1.10888,0.42696 1.10888,0.95364c0,0.52668 -0.49646,0.95364 -1.10888,0.95364c-0.61242,0 -1.10888,-0.42696 -1.10888,-0.95364z"></path><path stroke="none" fill="#d5e5ff" d="M243.26166,180.99948c0,-1.10235 1.0525,-1.99599 2.35083,-1.99599c1.29833,0 2.35083,0.89363 2.35083,1.99599c0,1.10235 -1.0525,1.99599 -2.35083,1.99599c-1.29833,0 -2.35083,-0.89363 -2.35083,-1.99599z"></path><path stroke="none" fill="#d5e5ff" d="M244.23302,183.01373c0,-0.65199 0.58911,-1.18053 1.31582,-1.18053c0.72671,0 1.31582,0.52854 1.31582,1.18053c0,0.65199 -0.58911,1.18053 -1.31582,1.18053c-0.72671,0 -1.31582,-0.52854 -1.31582,-1.18053z"></path><path stroke="#00112b" fill="none" d="M235.99426,166.39047l3.96599,2.12034l3.9772,-2.12034h5.5297l4.84493,6.52575l-1.68809,9.79677l-12.57036,10.89658l-12.60128,-10.79852l-1.76444,-9.78331l4.78793,-6.63726zM230.03885,175.18811l1.22145,6.7728l8.72365,7.4757l8.70231,-7.54356l1.16863,-6.7822l-3.35411,-4.51764h-3.82809l-2.75339,1.4679l-2.74557,-1.4679h-3.82032z"></path><path opacity="0.33" stroke="none" fill="#d5e5ff" d="M236.34509,167.58229l3.61861,1.93464l3.62895,-1.93464h5.04542l4.42068,5.95425l-1.54026,8.93883l-11.46956,9.94236l-11.49773,-9.85287l-1.60995,-8.92658l4.36862,-6.056zM228.89371,174.58946l1.36925,7.59193l9.77866,8.3797l9.7547,-8.45577l1.30996,-7.60239l-3.75973,-5.06399h-4.29107l-3.08634,1.64535l-3.07761,-1.64535h-4.28235z"></path></g></g></svg>